<?xml version="1.0" encoding="UTF-8"?>
<svg height="600" width="800" xmlns="http://www.w3.org/2000/svg" xmlns:xlink="http://www.w3.org/1999/xlink">
    <g id="Notes" font-family="LucidaGrande, 'Lucida Grande', sans-serif" font-size="13">
        <rect fill="white" height="600.0" width="800.0" x="0.0" y="0.0" />
        <g font-size="13">
            <text x="18.0" y="176.0">Small</text>
            <text x="18.0" y="376.0">Medium</text>
            <text x="18.0" y="576.0">Large</text>
        </g>
        <g font-size="9">
            <text x="250.0" y="30.0">Ultralight</text>
            <text x="450.0" y="30.0">Regular</text>
            <text x="650.0" y="30.0">Black</text>
            <text id="template-version" fill="#505050" text-anchor="end" x="785.0" y="575.0">Template v.3.0</text>
            <a href="https://github.com/swhitty/SwiftDraw">
                <text fill="#505050" text-anchor="end" x="785.0" y="590.0">https://github.com/swhitty/SwiftDraw</text>
            </a>
        </g>
    </g>
    <g id="Guides" stroke="rgb(39, 170, 225)" stroke-width="0.5">
        <path id="Capline-S" d="M18,76 l800,0" />
        <path id="H-reference" d="M85,145.755 L87.685,145.755 L113.369,79.287 L114.052,79.287 L114.052,76 L112.148,76 L85,145.755 Z M95.693,121.536 L130.996,121.536 L130.263,119.313 L96.474,119.313 L95.693,121.536 Z M139.15,145.755 L141.787,145.755 L114.638,76 L113.466,76 L113.466,79.287 L139.15,145.755 Z" stroke="none" transform="translate(0,0)" />
        <path id="Baseline-S" d="M18,146 l800,0" />
        <path id="left-margin-Ultralight-S" d="M228.421,56 l0,110" />
        <path id="right-margin-Ultralight-S" d="M301.579,56 l0,110" />
        <path id="left-margin-Regular-S" d="M428.421,56 l0,110" />
        <path id="right-margin-Regular-S" d="M501.579,56 l0,110" />
        <path id="left-margin-Black-S" d="M628.421,56 l0,110" />
        <path id="right-margin-Black-S" d="M701.579,56 l0,110" />
        <path id="Capline-M" d="M18,276 l800,0" />
        <path id="Baseline-M" d="M18,346 l800,0" />
        <path id="Capline-L" d="M18,476 l800,0" />
        <path id="Baseline-L" d="M18,546 l800,0" />
    </g>
    <g id="Symbols">
        <g id="Ultralight-S" transform="translate(0,0)">
            <path d="M295.363,113.393 C295.248,121.336 292.091,128.803 286.47,134.422 C274.628,146.264 255.359,146.264 243.517,134.422 C231.675,122.579 231.675,103.308 243.517,91.466 C254.75,80.237 272.655,79.656 284.576,89.726 L273.83,92.49 L274.377,95.133 L289.881,91.458 L289.803,91.382 L289.866,91.365 L286.847,76 L284.237,76.684 L286.437,87.777 C273.46,76.702 253.879,77.291 241.609,89.556 C228.716,102.452 228.716,123.434 241.609,136.328 C254.506,149.224 275.484,149.224 288.381,136.328 C294.498,130.211 297.935,122.079 298.061,113.43 L295.363,113.393 Z" />
        </g>
        <g id="Regular-S" transform="translate(0,0)">
            <path d="M495.363,113.393 C495.248,121.336 492.091,128.803 486.47,134.422 C474.628,146.264 455.359,146.264 443.517,134.422 C431.675,122.579 431.675,103.308 443.517,91.466 C454.75,80.237 472.655,79.656 484.576,89.726 L473.83,92.49 L474.377,95.133 L489.881,91.458 L489.803,91.382 L489.866,91.365 L486.847,76 L484.237,76.684 L486.437,87.777 C473.46,76.702 453.879,77.291 441.609,89.556 C428.716,102.452 428.716,123.434 441.609,136.328 C454.506,149.224 475.484,149.224 488.381,136.328 C494.498,130.211 497.935,122.079 498.061,113.43 L495.363,113.393 Z" />
        </g>
        <g id="Black-S" transform="translate(0,0)">
            <path d="M695.363,113.393 C695.248,121.336 692.091,128.803 686.47,134.422 C674.628,146.264 655.359,146.264 643.517,134.422 C631.675,122.579 631.675,103.308 643.517,91.466 C654.75,80.237 672.655,79.656 684.576,89.726 L673.83,92.49 L674.377,95.133 L689.881,91.458 L689.803,91.382 L689.866,91.365 L686.847,76 L684.237,76.684 L686.437,87.777 C673.46,76.702 653.879,77.291 641.609,89.556 C628.716,102.452 628.716,123.434 641.609,136.328 C654.506,149.224 675.484,149.224 688.381,136.328 C694.498,130.211 697.935,122.079 698.061,113.43 L695.363,113.393 Z" />
        </g>
    </g>
</svg>