<?xml version="1.0" encoding="UTF-8"?>
<svg height="600" width="800" xmlns="http://www.w3.org/2000/svg" xmlns:xlink="http://www.w3.org/1999/xlink">
    <g id="Notes" font-family="LucidaGrande, 'Lucida Grande', sans-serif" font-size="13">
        <rect fill="white" height="600.0" width="800.0" x="0.0" y="0.0" />
        <g font-size="13">
            <text x="18.0" y="176.0">Small</text>
            <text x="18.0" y="376.0">Medium</text>
            <text x="18.0" y="576.0">Large</text>
        </g>
        <g font-size="9">
            <text x="250.0" y="30.0">Ultralight</text>
            <text x="450.0" y="30.0">Regular</text>
            <text x="650.0" y="30.0">Black</text>
            <text id="template-version" fill="#505050" text-anchor="end" x="785.0" y="575.0">Template v.3.0</text>
            <a href="https://github.com/swhitty/SwiftDraw">
                <text fill="#505050" text-anchor="end" x="785.0" y="590.0">https://github.com/swhitty/SwiftDraw</text>
            </a>
        </g>
    </g>
    <g id="Guides" stroke="rgb(39, 170, 225)" stroke-width="0.5">
        <path id="Capline-S" d="M18,76 l800,0" />
        <path id="H-reference" d="M85,145.755 L87.685,145.755 L113.369,79.287 L114.052,79.287 L114.052,76 L112.148,76 L85,145.755 Z M95.693,121.536 L130.996,121.536 L130.263,119.313 L96.474,119.313 L95.693,121.536 Z M139.15,145.755 L141.787,145.755 L114.638,76 L113.466,76 L113.466,79.287 L139.15,145.755 Z" stroke="none" transform="translate(0,0)" />
        <path id="Baseline-S" d="M18,146 l800,0" />
        <path id="left-margin-Ultralight-S" d="M229.692,56 l0,110" />
        <path id="right-margin-Ultralight-S" d="M300.308,56 l0,110" />
        <path id="left-margin-Regular-S" d="M429.692,56 l0,110" />
        <path id="right-margin-Regular-S" d="M500.308,56 l0,110" />
        <path id="left-margin-Black-S" d="M629.692,56 l0,110" />
        <path id="right-margin-Black-S" d="M700.308,56 l0,110" />
        <path id="Capline-M" d="M18,276 l800,0" />
        <path id="Baseline-M" d="M18,346 l800,0" />
        <path id="Capline-L" d="M18,476 l800,0" />
        <path id="Baseline-L" d="M18,546 l800,0" />
    </g>
    <g id="Symbols">
        <g id="Ultralight-S" transform="translate(0,0)">
            <path d="M268.727,120.121 C276.616,120.121 283.032,113.705 283.032,105.816 C283.032,97.926 276.616,91.51 268.727,91.51 C260.837,91.51 254.421,97.926 254.421,105.816 C254.421,113.705 260.837,120.121 268.727,120.121 Z" />
            <path d="M256.562,122.961 C251.052,122.961 246.585,127.427 246.585,132.938 L246.585,144.081 C246.585,145.141 247.445,146 248.504,146 L288.949,146 C290.008,146 290.868,145.141 290.868,144.081 L290.868,133.214 C291.037,132.922 291.19,132.608 291.313,132.278 L299.141,111.556 C299.402,110.866 299.54,110.129 299.54,109.384 L299.54,86.13 C299.54,82.738 296.793,79.991 293.4,79.991 C290.008,79.991 287.261,82.738 287.261,86.13 L287.261,108.264 L281.712,122.961 L256.562,122.961 Z" />
            <path d="M232.364,89.668 L236.892,89.668 C237.844,89.668 238.65,88.978 238.788,88.041 C239.049,86.338 239.578,85.079 240.361,84.319 C241.09,83.613 242.096,83.268 243.446,83.268 C244.843,83.268 245.91,83.652 246.724,84.45 C247.537,85.248 247.913,86.207 247.913,87.481 C247.913,88.08 247.775,88.632 247.491,89.17 C247.345,89.438 246.777,90.267 244.613,92.101 C242.602,93.805 241.244,95.409 240.453,96.998 C239.648,98.617 239.256,100.973 239.256,104.181 L239.256,104.181 C239.256,105.24 240.116,106.1 241.175,106.1 L245.265,106.1 C246.324,106.1 247.184,105.24 247.184,104.181 L247.184,104.181 C247.184,101.702 247.483,100.689 247.66,100.305 C247.798,99.998 248.374,99.093 250.653,97.205 C252.771,95.447 254.199,93.843 255.012,92.309 C255.849,90.735 256.271,89.008 256.271,87.182 C256.271,83.92 255.035,81.196 252.587,79.078 C250.223,77.036 247.138,76 243.416,76 C239.87,76 236.869,77.059 234.513,79.139 C232.134,81.242 230.776,84.089 230.469,87.596 L230.469,87.596 C230.361,88.701 231.244,89.668 232.364,89.668 Z" />
            <path d="M245.25,116.952 C246.309,116.952 247.169,116.092 247.169,115.033 L247.169,110.95 C247.169,109.891 246.309,109.031 245.25,109.031 L241.167,109.031 C240.108,109.031 239.248,109.891 239.248,110.95 L239.248,115.033 C239.248,116.092 240.108,116.952 241.167,116.952 L245.25,116.952 Z" />
        </g>
        <g id="Regular-S" transform="translate(0,0)">
            <path d="M468.727,120.121 C476.616,120.121 483.032,113.705 483.032,105.816 C483.032,97.926 476.616,91.51 468.727,91.51 C460.837,91.51 454.421,97.926 454.421,105.816 C454.421,113.705 460.837,120.121 468.727,120.121 Z" />
            <path d="M456.562,122.961 C451.052,122.961 446.585,127.427 446.585,132.938 L446.585,144.081 C446.585,145.141 447.445,146 448.504,146 L488.949,146 C490.008,146 490.868,145.141 490.868,144.081 L490.868,133.214 C491.037,132.922 491.19,132.608 491.313,132.278 L499.141,111.556 C499.402,110.866 499.54,110.129 499.54,109.384 L499.54,86.13 C499.54,82.738 496.793,79.991 493.4,79.991 C490.008,79.991 487.261,82.738 487.261,86.13 L487.261,108.264 L481.712,122.961 L456.562,122.961 Z" />
            <path d="M432.364,89.668 L436.892,89.668 C437.844,89.668 438.65,88.978 438.788,88.041 C439.049,86.338 439.578,85.079 440.361,84.319 C441.09,83.613 442.096,83.268 443.446,83.268 C444.843,83.268 445.91,83.652 446.724,84.45 C447.537,85.248 447.913,86.207 447.913,87.481 C447.913,88.08 447.775,88.632 447.491,89.17 C447.345,89.438 446.777,90.267 444.613,92.101 C442.602,93.805 441.244,95.409 440.453,96.998 C439.648,98.617 439.256,100.973 439.256,104.181 L439.256,104.181 C439.256,105.24 440.116,106.1 441.175,106.1 L445.265,106.1 C446.324,106.1 447.184,105.24 447.184,104.181 L447.184,104.181 C447.184,101.702 447.483,100.689 447.66,100.305 C447.798,99.998 448.374,99.093 450.653,97.205 C452.771,95.447 454.199,93.843 455.012,92.309 C455.849,90.735 456.271,89.008 456.271,87.182 C456.271,83.92 455.035,81.196 452.587,79.078 C450.223,77.036 447.138,76 443.416,76 C439.87,76 436.869,77.059 434.513,79.139 C432.134,81.242 430.776,84.089 430.469,87.596 L430.469,87.596 C430.361,88.701 431.244,89.668 432.364,89.668 Z" />
            <path d="M445.25,116.952 C446.309,116.952 447.169,116.092 447.169,115.033 L447.169,110.95 C447.169,109.891 446.309,109.031 445.25,109.031 L441.167,109.031 C440.108,109.031 439.248,109.891 439.248,110.95 L439.248,115.033 C439.248,116.092 440.108,116.952 441.167,116.952 L445.25,116.952 Z" />
        </g>
        <g id="Black-S" transform="translate(0,0)">
            <path d="M668.727,120.121 C676.616,120.121 683.032,113.705 683.032,105.816 C683.032,97.926 676.616,91.51 668.727,91.51 C660.837,91.51 654.421,97.926 654.421,105.816 C654.421,113.705 660.837,120.121 668.727,120.121 Z" />
            <path d="M656.562,122.961 C651.052,122.961 646.585,127.427 646.585,132.938 L646.585,144.081 C646.585,145.141 647.445,146 648.504,146 L688.949,146 C690.008,146 690.868,145.141 690.868,144.081 L690.868,133.214 C691.037,132.922 691.19,132.608 691.313,132.278 L699.141,111.556 C699.402,110.866 699.54,110.129 699.54,109.384 L699.54,86.13 C699.54,82.738 696.793,79.991 693.4,79.991 C690.008,79.991 687.261,82.738 687.261,86.13 L687.261,108.264 L681.712,122.961 L656.562,122.961 Z" />
            <path d="M632.364,89.668 L636.892,89.668 C637.844,89.668 638.65,88.978 638.788,88.041 C639.049,86.338 639.578,85.079 640.361,84.319 C641.09,83.613 642.096,83.268 643.447,83.268 C644.843,83.268 645.91,83.652 646.724,84.45 C647.537,85.248 647.913,86.207 647.913,87.481 C647.913,88.08 647.775,88.632 647.491,89.17 C647.345,89.438 646.777,90.267 644.613,92.101 C642.602,93.805 641.244,95.409 640.453,96.998 C639.648,98.617 639.256,100.973 639.256,104.181 L639.256,104.181 C639.256,105.24 640.116,106.1 641.175,106.1 L645.265,106.1 C646.324,106.1 647.184,105.24 647.184,104.181 L647.184,104.181 C647.184,101.702 647.483,100.689 647.66,100.305 C647.798,99.998 648.374,99.093 650.653,97.205 C652.771,95.447 654.199,93.843 655.012,92.309 C655.849,90.735 656.271,89.008 656.271,87.182 C656.271,83.92 655.035,81.196 652.587,79.078 C650.223,77.036 647.138,76 643.416,76 C639.87,76 636.869,77.059 634.513,79.139 C632.134,81.242 630.776,84.089 630.469,87.596 L630.469,87.596 C630.361,88.701 631.244,89.668 632.364,89.668 Z" />
            <path d="M645.25,116.952 C646.309,116.952 647.169,116.092 647.169,115.033 L647.169,110.95 C647.169,109.891 646.309,109.031 645.25,109.031 L641.167,109.031 C640.108,109.031 639.248,109.891 639.248,110.95 L639.248,115.033 C639.248,116.092 640.108,116.952 641.167,116.952 L645.25,116.952 Z" />
        </g>
    </g>
</svg>