<?xml version="1.0" encoding="UTF-8"?>
<svg height="600" width="800" xmlns="http://www.w3.org/2000/svg" xmlns:xlink="http://www.w3.org/1999/xlink">
    <g id="Notes" font-family="LucidaGrande, 'Lucida Grande', sans-serif" font-size="13">
        <rect fill="white" height="600.0" width="800.0" x="0.0" y="0.0" />
        <g font-size="13">
            <text x="18.0" y="176.0">Small</text>
            <text x="18.0" y="376.0">Medium</text>
            <text x="18.0" y="576.0">Large</text>
        </g>
        <g font-size="9">
            <text x="250.0" y="30.0">Ultralight</text>
            <text x="450.0" y="30.0">Regular</text>
            <text x="650.0" y="30.0">Black</text>
            <text id="template-version" fill="#505050" text-anchor="end" x="785.0" y="575.0">Template v.3.0</text>
            <a href="https://github.com/swhitty/SwiftDraw">
                <text fill="#505050" text-anchor="end" x="785.0" y="590.0">https://github.com/swhitty/SwiftDraw</text>
            </a>
        </g>
    </g>
    <g id="Guides" stroke="rgb(39, 170, 225)" stroke-width="0.5">
        <path id="Capline-S" d="M18,76 l800,0" />
        <path id="H-reference" d="M85,145.755 L87.685,145.755 L113.369,79.287 L114.052,79.287 L114.052,76 L112.148,76 L85,145.755 Z M95.693,121.536 L130.996,121.536 L130.263,119.313 L96.474,119.313 L95.693,121.536 Z M139.15,145.755 L141.787,145.755 L114.638,76 L113.466,76 L113.466,79.287 L139.15,145.755 Z" stroke="none" transform="translate(0,0)" />
        <path id="Baseline-S" d="M18,146 l800,0" />
        <path id="left-margin-Ultralight-S" d="M226.877,56 l0,110" />
        <path id="right-margin-Ultralight-S" d="M303.123,56 l0,110" />
        <path id="left-margin-Regular-S" d="M426.877,56 l0,110" />
        <path id="right-margin-Regular-S" d="M503.123,56 l0,110" />
        <path id="left-margin-Black-S" d="M626.877,56 l0,110" />
        <path id="right-margin-Black-S" d="M703.123,56 l0,110" />
        <path id="Capline-M" d="M18,276 l800,0" />
        <path id="Baseline-M" d="M18,346 l800,0" />
        <path id="Capline-L" d="M18,476 l800,0" />
        <path id="Baseline-L" d="M18,546 l800,0" />
    </g>
    <g id="Symbols">
        <g id="Ultralight-S" transform="translate(0,0)">
            <path d="M299.998,78.182 L297.82,76 L265,108.818 L232.182,76 L230.002,78.182 L262.82,110.999 L230.002,143.817 L232.182,146 L265,113.178 L297.82,146 L299.998,143.817 L267.18,110.999 Z" />
        </g>
        <g id="Regular-S" transform="translate(0,0)">
            <path d="M499.998,78.182 L497.82,76 L465,108.818 L432.182,76 L430.002,78.182 L462.82,110.999 L430.002,143.817 L432.182,146 L465,113.178 L497.82,146 L499.998,143.817 L467.18,110.999 Z" />
        </g>
        <g id="Black-S" transform="translate(0,0)">
            <path d="M699.998,78.182 L697.82,76 L665,108.818 L632.182,76 L630.002,78.182 L662.82,110.999 L630.002,143.817 L632.182,146 L665,113.178 L697.82,146 L699.998,143.817 L667.18,110.999 Z" />
        </g>
    </g>
</svg>